<svg width="122" height="126" viewBox="0 0 122 126" fill="none" xmlns="http://www.w3.org/2000/svg">
<path d="M62.9051 0C51.5154 0.00209301 40.3398 3.09595 30.5705 8.95155C20.8013 14.8072 12.8048 23.2048 7.43401 33.2488C2.06326 43.2928 -0.48026 54.6063 0.0747582 65.9826C0.629777 77.3588 4.26252 88.371 10.5855 97.8445C16.9084 107.318 25.6844 114.897 35.9773 119.774C46.2702 124.651 57.6938 126.642 69.0297 125.536C80.3656 124.429 91.1884 120.266 100.344 113.491C109.499 106.715 116.644 97.5816 121.015 87.0641C123.16 81.9049 118.02 76.7206 112.848 78.822C103.985 82.4125 94.1426 82.783 85.0339 79.8691C75.9252 76.9552 68.1257 70.9412 62.9916 62.8727C57.8574 54.8043 55.7133 45.1916 56.9321 35.7062C58.1508 26.2207 62.6553 17.4623 69.6624 10.9538L70.1468 10.4505C73.6135 6.48671 70.8578 0.0503334 65.3777 0.0503334H63.7042L63.2763 0.0125832L62.9051 0Z" fill="#FFB800"/>
</svg>
